<?xml version="1.0" encoding="utf-8"?>
<!-- Svg Vector Icons : http://www.onlinewebfonts.com/icon -->
<!DOCTYPE svg PUBLIC "-//W3C//DTD SVG 1.1//EN" "http://www.w3.org/Graphics/SVG/1.1/DTD/svg11.dtd">
<svg version="1.1" xmlns="http://www.w3.org/2000/svg" xmlns:xlink="http://www.w3.org/1999/xlink" x="0px" y="0px" viewBox="0 0 1000 1000" enable-background="new 0 0 1000 1000" xml:space="preserve">
<metadata> Svg Vector Icons : http://www.onlinewebfonts.com/icon </metadata>
<g><g transform="translate(0.000000,511.000000) scale(0.100000,-0.100000)"><path d="M1976.5,4973.2c-40.9-20.4-85.8-65.4-106.3-106.3c-34.7-67.4-36.8-302.5-36.8-4032.5c0-4451.5-14.3-4069.3,151.2-4144.9c77.7-34.7,159.4-38.8,1254.9-38.8c641.8,0,1169.1,4.1,1169.1,8.2s22.5,57.2,49.1,120.6l51.1,112.4l-40.9,79.7c-22.5,42.9-47,106.3-55.2,139l-16.4,61.3l-1015.8,6.1l-1015.8,4.1V830.3v3648.3h1727.1H5819l2-750.1c0-829.8,4.1-864.6,118.5-940.2c69.5-47,69.5-47,883-47H7638V-38.3v-2777.6l-288.2-6.1l-290.2-6.1l-49.1-151.2l-47-149.2l51.1-112.4l51.1-110.4l453.8,6.1c511,6.1,555.9,18.4,617.2,147.1c30.7,65.4,32.7,329.1,28.6,3176.2l-6.1,3108.7l-42.9,57.2c-81.7,110.4-1857.9,1808.8-1923.3,1837.4c-55.2,24.5-380.1,28.6-2105.2,28.6C2187,5010,2043.9,5007.9,1976.5,4973.2z M6977.8,3513.9l247.3-241.2h-437.4h-437.4v423.1v423.1l190.1-181.9C6642.6,3836.8,6840.9,3646.7,6977.8,3513.9z"/><path d="M3182.4,1991.2c-57.2-20.4-143.1-114.4-165.6-183.9c-28.6-87.9,2-183.9,85.8-263.7l61.3-59.3l1782.2-6.1c981.1-2.1,1810.9,0,1845.6,6.1c83.8,14.3,165.6,98.1,194.2,194.2c20.4,63.4,16.4,89.9-18.4,167.6c-73.6,169.6,55.2,159.4-1970.3,157.4C4016.3,2003.5,3198.7,1997.4,3182.4,1991.2z"/><path d="M3125.2,636.1c-143.1-87.9-159.4-278-34.8-402.6l67.4-67.4h1839.5h1839.5l63.4,53.1C7033,329.6,7024.8,536,6883.8,630l-69.5,47H5003.5C3223.3,677,3190.6,677,3125.2,636.1z"/><path d="M5616.6-163c-28.6-10.2-94-51.1-147.2-87.9c-165.5-120.6-208.5-134.9-386.3-134.9c-92,0-194.2-12.2-231-28.6c-96.1-38.8-171.7-139-210.5-273.8c-53.1-181.9-81.8-222.8-239.1-339.3c-104.2-77.7-159.4-134.9-186-192.1c-42.9-96.1-38.8-153.3,28.6-374l47-155.4l-55.2-181.9c-89.9-288.2-65.4-369.9,169.6-539.6c139-102.2,175.8-151.3,226.9-316.8c81.8-259.6,136.9-300.4,435.4-316.8l220.7-14.3l157.4-108.3c132.9-96.1,171.7-112.4,269.8-118.5c118.5-8.2,120.6-8.2,363.8,165.5c81.7,59.3,102.2,63.4,286.1,71.5c108.3,4.1,222.8,16.3,255.5,28.6c85.8,32.7,149.2,122.6,208.5,300.4c55.2,167.6,81.8,202.3,284.1,357.7c159.4,120.6,190.1,251.4,114.5,472.1c-51.1,149.2-51.1,259.6,0,408.8c83.8,241.2,47,345.4-169.6,511c-155.4,114.4-206.4,194.2-249.4,367.9c-20.4,94-89.9,192.1-159.4,231c-45,22.5-132.9,36.8-273.9,45c-204.4,10.2-208.5,12.3-347.5,104.2c-75.6,53.1-159.4,106.3-183.9,118.6C5792.4-136.4,5684.1-136.4,5616.6-163z M6109.2-657.6c186-67.5,318.8-157.4,466-312.7c206.4-220.8,306.6-474.2,306.6-782.8c0-623.4-521.2-1146.6-1144.6-1146.6c-333.1,0-580.5,106.3-817.6,345.4c-85.8,85.8-179.9,202.3-210.5,261.6c-73.6,139-136.9,390.4-136.9,545.7c2,521.2,378.1,995.3,891.1,1126.2C5639.1-575.9,5933.4-592.2,6109.2-657.6z"/><path d="M6278.8-1317.8c-55.2-28.6-143.1-83.8-196.2-120.6c-116.5-85.9-376.1-357.7-464-484.4l-65.4-94L5426.5-1886c-147.2,153.3-294.3,233-449.7,239.1c-120.6,4.1-143.1-22.5-59.3-73.6c132.9-77.7,296.4-253.5,441.5-476.2c120.6-183.9,163.5-233,198.3-233c26.6,0,57.2,8.2,69.5,16.3c14.3,8.2,98.1,139,188,290.2c173.7,294.3,390.4,586.6,543.7,735.8c51.1,49.1,94,98.1,94,106.3C6452.6-1250.3,6381-1266.7,6278.8-1317.8z"/><path d="M3164-667.8c-147.2-73.6-200.3-249.4-114.5-378.1c69.5-106.3,116.5-116.5,539.6-116.5h388.3l34.8,73.6c42.9,89.9,130.8,181.9,255.5,265.7c57.2,38.8,102.2,89.9,116.5,128.8l22.5,63.4h-586.6C3303-631,3225.3-635.1,3164-667.8z"/><path d="M4727.5-3202.2c-30.7-51.1-645.9-1524.7-645.9-1549.2c0-49.1,59.3-32.7,419,104.2c192.1,73.6,355.6,132.9,367.9,132.9c10.2,0,118.5-65.4,239.2-147.1c149.2-98.1,228.9-139,243.2-124.7c18.4,18.4,161.5,1162.9,161.5,1295.8c0,38.8-24.5,69.5-96.1,122.6c-147.2,106.3-186,118.6-355.6,120.6c-85.8,0-194.2,14.3-239.1,28.6C4774.5-3202.2,4733.7-3194,4727.5-3202.2z"/><path d="M6636.5-3218.6c-38.8-14.3-143.1-26.6-230.9-26.6c-171.7-2-228.9-22.5-372-130.8c-45-34.7-85.8-65.4-89.9-67.4c-14.3-10.2,145.1-1326.5,161.5-1344.9c12.3-12.3,108.3,40.9,241.2,126.7c120.6,81.8,231,147.1,243.2,147.1c14.3,0,179.9-59.3,369.9-132.9c190.1-73.6,359.7-132.9,378.1-132.9c18.4,0,34.7,16.3,34.7,34.8c0,40.9-637.7,1561.5-654,1557.4C6712.1-3190,6675.3-3202.2,6636.5-3218.6z"/></g></g>
</svg>