<?xml version="1.0" encoding="utf-8"?>
<!-- Svg Vector Icons : http://www.onlinewebfonts.com/icon -->
<!DOCTYPE svg PUBLIC "-//W3C//DTD SVG 1.1//EN" "http://www.w3.org/Graphics/SVG/1.1/DTD/svg11.dtd">
<svg version="1.1" xmlns="http://www.w3.org/2000/svg" xmlns:xlink="http://www.w3.org/1999/xlink" x="0px" y="0px" viewBox="0 0 1000 1000" enable-background="new 0 0 1000 1000" xml:space="preserve">
<metadata> Svg Vector Icons : http://www.onlinewebfonts.com/icon </metadata>
<g><g transform="translate(0.000000,511.000000) scale(0.100000,-0.100000)"><path d="M9251.8,4520.3c-560.6-30.7-1062.1-102.9-1574.6-227.8C5960.3,3872,4571.9,2906.3,3511.9,1390.8C2883.4,493,2305.3-779.4,1959.3-2023.3l-61.3-229.9L995.7-3282.5C500.8-3849.7,97.8-4316.1,100-4320.5c2.2-2.2,289.1,72.3,635.1,168.6c438,122.6,637.3,186.2,657,214.6c15.3,21.9,251.8,335,523.4,696.4l497.1,657l343.8,57c1119.1,188.3,2205.3,534.3,3344,1064.3c635.1,295.6,1548.3,801.5,1506.7,838.7c-8.7,8.8-350.4,258.4-755.5,556.3c-407.3,297.8-740.2,547.5-740.2,554s179.6,6.6,400.8,0c657-19.7,1169.4-131.4,1727.9-374.5l78.8-35l116.1,179.6c236.5,370.1,396.4,797.1,643.8,1736.6c262.8,994.2,464.3,1629.3,703,2218.4c65.7,162.1,118.3,302.2,118.3,313.2C9900,4546.6,9709.5,4546.6,9251.8,4520.3z M8562,3657.4c-6.6-4.4-96.4-63.5-201.5-129.2c-678.9-427-1649-1259.2-2827.2-2422.1c-959.2-948.2-1614-1655.6-2189.9-2360.8c-120.4-148.9-223.4-260.6-227.8-245.3c-10.9,32.9,302.2,501.5,632.9,943.9c1215.4,1627.1,2549.1,2908.2,3885,3731.6C7968.5,3383.7,8629.8,3727.5,8562,3657.4z"/></g></g>
</svg>