<?xml version="1.0" encoding="utf-8"?>
<!-- Svg Vector Icons : http://www.onlinewebfonts.com/icon -->
<!DOCTYPE svg PUBLIC "-//W3C//DTD SVG 1.1//EN" "http://www.w3.org/Graphics/SVG/1.1/DTD/svg11.dtd">
<svg version="1.1" xmlns="http://www.w3.org/2000/svg" xmlns:xlink="http://www.w3.org/1999/xlink" x="0px" y="0px" viewBox="0 0 1000 1000" enable-background="new 0 0 1000 1000" xml:space="preserve">
<metadata> Svg Vector Icons : http://www.onlinewebfonts.com/icon </metadata>
<g><path d="M631.2,752c0,5-4,9-9,9H300.5c-5,0-9-4-9-9V248c0-5,4-9,9-9h321.8c5,0,9,4,9,9v58.5l38.4-45.7V233c0-22.8-18.5-41.3-41.3-41.3h-334c-22.8,0-41.3,18.5-41.3,41.3v534c0,22.8,18.5,41.3,41.3,41.3h334c22.8,0,41.3-18.5,41.3-41.3V493.8l-38.4,45.7V752z"/><path d="M691.6,299.3c-4.1-3.5-10.3-2.9-13.7,1.2l-8.3,9.8l-38.4,45.7L401.3,629l66.8,56.2l163.2-193.8l38.4-45.7l75-89.1c3.5-4.1,2.9-10.3-1.2-13.7L691.6,299.3z"/><path d="M391.9,640.1L396,703l62.7-6.7L391.9,640.1z"/><path d="M500,10C229.4,10,10,229.4,10,500c0,270.6,219.4,490,490,490c270.6,0,490-219.4,490-490C990,229.4,770.6,10,500,10z M499.4,948.7C251.6,948.7,50.7,747.8,50.7,500c0-247.8,200.9-448.7,448.7-448.7c247.8,0,448.7,200.9,448.7,448.7C948.1,747.8,747.2,948.7,499.4,948.7z"/></g>
</svg>